<?xml version="1.0" encoding="UTF-8" standalone="no"?>
<!-- Created with Inkscape (http://www.inkscape.org/) -->

<svg
   width="462.19577"
   height="116.73006"
   viewBox="0 0 462.19577 116.73006"
   id="svg2"
   version="1.1"
   inkscape:version="1.3 (0e150ed6c4, 2023-07-21)"
   sodipodi:docname="Logo.svg"
   inkscape:export-filename="spotlight.png"
   inkscape:export-xdpi="96.5"
   inkscape:export-ydpi="96.5"
   xml:space="preserve"
   xmlns:inkscape="http://www.inkscape.org/namespaces/inkscape"
   xmlns:sodipodi="http://sodipodi.sourceforge.net/DTD/sodipodi-0.dtd"
   xmlns="http://www.w3.org/2000/svg"
   xmlns:svg="http://www.w3.org/2000/svg"
   xmlns:rdf="http://www.w3.org/1999/02/22-rdf-syntax-ns#"
   xmlns:cc="http://creativecommons.org/ns#"
   xmlns:dc="http://purl.org/dc/elements/1.1/"><defs
     id="defs4" /><sodipodi:namedview
     id="base"
     pagecolor="#ffffff"
     bordercolor="#666666"
     borderopacity="1.0"
     inkscape:pageopacity="0.0"
     inkscape:pageshadow="2"
     inkscape:zoom="0.26124924"
     inkscape:cx="736.84426"
     inkscape:cy="614.35587"
     inkscape:document-units="px"
     inkscape:current-layer="layer1"
     showgrid="false"
     units="px"
     inkscape:snap-page="true"
     inkscape:window-width="1680"
     inkscape:window-height="987"
     inkscape:window-x="-8"
     inkscape:window-y="-8"
     inkscape:window-maximized="1"
     inkscape:showpageshadow="2"
     inkscape:pagecheckerboard="0"
     inkscape:deskcolor="#d1d1d1" /><metadata
     id="metadata7"><rdf:RDF><cc:Work
         rdf:about=""><dc:format>image/svg+xml</dc:format><dc:type
           rdf:resource="http://purl.org/dc/dcmitype/StillImage" /><dc:title /></cc:Work></rdf:RDF></metadata><g
     inkscape:label="Layer 1"
     inkscape:groupmode="layer"
     id="layer1"
     transform="translate(-17.914589,-802.31331)"><g
       id="g4268"
       style="fill:#1e1e1e;fill-opacity:1"
       transform="translate(-1439.4194,312.2871)"><path
         d="m 1760.9629,545.05376 c -0.068,-0.81623 -0.7482,-1.36039 -1.9046,-1.49643 -0.068,0 -0.136,0 -0.204,0 -1.5645,-0.13604 -3.0609,-0.13604 -4.6253,-0.068 -3.6731,0.27208 -7.2781,0.81623 -10.8831,1.70049 -1.1564,0.27207 -2.4487,0.54415 -3.401,1.36038 -0.2721,1.42841 -0.2721,1.42841 0.3401,2.92483 0.5441,0.13604 0.9523,0.3401 1.3604,0.27208 2.4487,-0.20406 4.8974,-0.3401 7.278,-0.68019 2.8569,-0.47614 5.6456,-1.02029 8.5025,-1.29237 0.6802,-0.068 1.3603,-0.20406 1.9725,-0.40812 1.1563,-0.27207 1.6325,-1.02029 1.5645,-2.31265 z"
         style="font-style:normal;font-variant:normal;font-weight:normal;font-stretch:normal;font-size:medium;line-height:125%;font-family:'Hello Santtiny';-inkscape-font-specification:'Hello Santtiny';letter-spacing:0.37px;word-spacing:0px;fill:#1e1e1e;fill-opacity:1;stroke:none;stroke-width:1px;stroke-linecap:butt;stroke-linejoin:miter;stroke-opacity:1"
         id="path4240"
         inkscape:connector-curvature="0" /><path
         d="m 1516.9471,494.03242 c -0.8843,-0.20406 -1.7005,-0.40811 -2.5848,-0.40811 -6.0537,-0.27208 -11.9714,0.54415 -17.889,1.70048 -4.9654,0.95227 -9.8628,2.24464 -14.7602,3.40096 -4.9654,1.29237 -9.8628,2.85681 -14.6242,4.89739 -0.8162,0.3401 -1.4964,1.02029 -2.1086,1.42841 0.1361,1.7685 0.4762,2.99285 2.1766,3.19691 2.3127,-0.54416 4.6254,-1.08831 6.938,-1.70049 2.3127,-0.54415 4.6253,-1.22434 7.3461,-1.90454 -1.0883,2.1086 -1.8365,3.94512 -2.8568,5.57759 -3.8091,6.05372 -6.5979,12.58357 -9.6588,18.90937 -0.6121,1.22434 -1.2923,1.90454 -2.4486,2.31265 -1.7685,0.6802 -3.5371,1.42841 -5.2375,2.31266 -1.4284,0.74821 -2.9249,1.56444 -3.8091,2.92483 -0.068,0.3401 -0.1361,0.54415 -0.068,0.81623 0.204,1.83652 0.7482,2.24464 2.4487,1.70048 0.5441,-0.13604 1.0202,-0.34009 1.5644,-0.54415 1.0883,-0.3401 2.1766,-0.68019 3.537,-1.08831 -1.4284,4.01314 -2.7208,7.61816 -3.9451,11.22319 -0.8162,2.31265 -1.7005,4.62531 -2.1086,7.00599 -0.4081,2.85681 -0.8162,5.6456 -0.136,8.63845 1.0883,4.89739 4.0131,8.0943 7.8902,10.74705 0.6122,0.40811 1.4964,0.54415 2.2446,0.68019 3.265,0.68019 6.4619,0 9.5908,-0.61217 4.5572,-0.95227 8.7064,-2.92483 12.8556,-4.89739 1.4964,-0.81623 2.9248,-1.83652 4.3532,-2.85681 1.4284,-1.08831 1.9046,-2.58474 1.9046,-4.35324 -1.7685,-1.08831 -3.333,-0.40812 -4.7614,0.3401 -3.9451,1.97256 -7.8902,3.94512 -12.1074,5.37352 -3.401,1.15633 -6.87,1.90454 -10.407,1.97256 -1.9725,0 -4.0131,-0.20406 -5.5095,-1.70048 -1.2244,-1.15633 -1.4965,-2.72077 -1.5645,-4.28522 -0.204,-2.65275 0.4081,-5.16946 0.7482,-7.7542 0.6122,-4.14918 2.3127,-7.95826 3.6051,-11.90338 0.8162,-2.65275 2.4487,-5.10145 3.4689,-7.7542 0.6122,-1.63246 1.6325,-2.38067 3.197,-2.72077 4.6253,-1.08831 9.1826,-2.24464 13.8079,-3.33295 1.2243,-0.27207 2.2446,-0.68019 2.9928,-1.7685 0.068,-0.27208 0.1361,-0.61217 0.1361,-0.88425 -0.068,-1.7685 -0.6122,-2.31266 -2.3127,-2.31266 -0.3401,0 -0.6122,0 -0.9523,0.068 -3.741,0.6802 -7.4141,1.42841 -11.1551,2.1086 -0.4762,0.068 -0.8843,0 -1.5645,0 1.0203,-3.33295 2.9929,-6.05372 4.4893,-8.97855 1.3604,-2.92483 2.8568,-5.78164 4.4213,-8.63845 1.6324,-2.85681 3.3329,-5.6456 4.8973,-8.36638 1.2244,-0.27207 2.3127,-0.54415 3.401,-0.74821 4.1492,-0.81623 8.3664,-1.7685 12.5836,-2.31265 3.9451,-0.54416 8.0263,-0.74822 12.0394,0.068 1.0883,0.20405 2.1766,0.068 3.0609,-0.61218 0.3401,-2.85681 -0.6122,-4.35323 -3.1289,-4.96541 z"
         style="font-style:normal;font-variant:normal;font-weight:normal;font-stretch:normal;font-size:medium;line-height:125%;font-family:'Hello Santtiny';-inkscape-font-specification:'Hello Santtiny';letter-spacing:0.37px;word-spacing:0px;fill:#1e1e1e;fill-opacity:1;stroke:none;stroke-width:1px;stroke-linecap:butt;stroke-linejoin:miter;stroke-opacity:1"
         id="path4222"
         inkscape:connector-curvature="0" /><path
         d="m 1542.0166,503.48711 c -0.136,-0.6802 -0.4081,-1.22435 -0.6122,-1.76851 -2.7208,-0.95227 -4.0131,-0.40811 -5.1695,1.90454 -0.136,0.3401 -0.272,0.6802 -0.5441,0.95227 -2.1086,2.58474 -3.0609,5.64561 -4.0812,8.70648 -0.5441,1.49642 -1.0883,2.92483 -1.5644,4.35323 -0.8162,2.17662 -1.5645,4.42126 -2.3807,6.59788 -0.4761,1.36038 -0.9523,2.72077 -1.4284,4.08115 -0.6122,1.63247 -1.2924,3.26493 -1.8365,4.96541 -0.5442,1.70049 -0.9523,3.40097 -1.4284,5.10145 -0.4081,1.90454 -0.8843,3.74106 -1.2244,5.6456 -0.204,1.29237 -0.5441,2.4487 -1.3604,3.87711 -0.204,-0.6802 -0.34,-1.02029 -0.4081,-1.36039 -0.9522,-3.74106 -3.605,-4.2172 -6.4618,-3.19691 -1.9726,0.68019 -3.673,1.83652 -5.2375,3.12889 -1.7005,1.36039 -2.9248,3.06087 -4.2852,4.76135 -1.8365,2.24464 -2.4487,4.89739 -1.5644,7.68618 1.2243,3.46899 2.5167,4.2172 6.4618,3.26493 0.204,0 0.4081,-0.20406 0.6122,-0.27208 3.4689,-1.08831 6.3258,-3.12889 9.1826,-5.23748 0.3401,-0.27208 0.6802,-0.40812 1.2243,-0.81624 -0.3401,3.74107 0,7.07401 0.8162,10.40696 0.4082,1.7685 0.9523,3.46898 2.1767,4.82937 0.8842,1.02029 1.2923,0.95227 2.7207,0 -0.204,-0.74821 -0.272,-1.70048 -0.6802,-2.38068 -0.9522,-1.70048 -1.2243,-3.537 -1.2243,-5.37352 0,-1.97256 0.068,-3.94512 0.2041,-5.91768 0.068,-1.36039 0.3401,-2.65275 0.272,-4.01314 -0.068,-1.36039 0.3401,-2.38068 1.0883,-3.46899 2.1767,-2.99285 4.3533,-5.91768 6.3939,-9.04656 1.4284,-2.24464 2.7207,-4.69334 3.809,-7.14203 1.2244,-2.65275 2.1086,-5.37353 3.1289,-8.02628 0.3401,-0.81623 0.6802,-1.63246 0.9523,-2.51671 0.7482,-2.58474 1.5644,-5.23749 2.1766,-7.82223 0.9523,-3.94512 1.0883,-7.95825 0.2721,-11.90337 z m -24.9631,47.74955 c -2.2446,1.90454 -4.6253,3.67304 -7.2781,5.03343 -0.9522,0.47614 -1.9725,0.74821 -3.3329,1.22435 0.2721,-2.4487 1.6325,-3.8771 2.9928,-5.23749 3.537,-3.537 6.0538,-5.03343 8.6385,-5.10145 0.7482,2.31266 0.6122,2.58474 -1.0203,4.08116 z m 17.685,-27.95594 c -1.5644,4.48928 -3.741,8.70648 -6.0537,13.12773 -0.068,-3.40096 7.006,-23.05854 9.7268,-27.07168 -0.068,4.96541 -2.1767,9.38666 -3.6731,13.94395 z"
         style="font-style:normal;font-variant:normal;font-weight:normal;font-stretch:normal;font-size:medium;line-height:125%;font-family:'Hello Santtiny';-inkscape-font-specification:'Hello Santtiny';letter-spacing:0.37px;word-spacing:0px;fill:#1e1e1e;fill-opacity:1;stroke:none;stroke-width:1px;stroke-linecap:butt;stroke-linejoin:miter;stroke-opacity:1"
         id="path4224"
         inkscape:connector-curvature="0" /><path
         d="m 1615.2014,498.72575 c -0.068,-0.20405 -0.068,-0.40811 -0.136,-0.68019 -0.2041,-2.24464 -1.6325,-3.74106 -2.9929,-5.44154 -0.6122,0.27207 -1.0883,0.40811 -1.8365,0.74821 0.136,1.02029 0.068,1.97256 0.4081,2.72077 0.6802,1.29237 0.6802,2.58473 0.6802,3.8771 0,1.49643 0,2.99285 0.136,4.42126 0,0.88425 0.4762,1.83652 0.3401,2.65275 -0.8162,3.537 0.2041,7.21005 -0.6802,10.74705 -0.34,1.56444 -0.4761,3.19691 -0.6121,4.82937 -0.4081,5.23749 -1.6325,10.33894 -3.1289,15.37237 -1.2244,4.28521 -2.9248,8.36637 -4.5573,12.44753 -1.7685,4.48927 -3.9451,8.77449 -6.8019,12.71961 -1.2244,1.63246 -2.6528,3.12889 -4.0812,4.62531 -0.5442,0.47614 -1.2243,0.81624 -1.9045,1.08831 -1.9046,0.61218 -3.0609,0.13604 -3.7411,-1.70048 -0.6802,-1.83652 -1.2243,-3.80908 -1.4964,-5.78164 -0.4762,-3.67304 -0.9523,-7.41411 -0.6802,-11.15517 0.136,-1.70048 0,-3.40096 0.068,-5.10145 0.136,-2.72077 0.3401,-5.44154 0.4761,-8.16231 0.068,-3.80909 0.068,-7.68619 0.1361,-11.49527 0.068,-2.04058 0.2721,-4.14918 0.204,-6.18975 0,-0.74822 -0.272,-1.63247 -0.6802,-2.31266 -0.5441,-0.88425 -1.2923,-1.63246 -1.8365,-2.31266 -1.6324,-0.40811 -2.2446,0.61218 -2.7208,1.7685 -0.272,0.54416 -0.3401,1.08831 -0.4761,1.70049 -0.8842,4.69333 -1.6325,9.45468 -2.6527,14.14801 -0.8843,4.01314 -2.1086,8.02628 -3.1289,11.9714 -2.3807,9.11459 -6.3258,17.54898 -10.407,25.91536 -0.4761,1.02029 -1.2243,1.97256 -1.9045,2.99285 -0.5442,0.68019 -1.2244,1.22435 -2.3127,1.08831 -1.0203,-2.04058 -1.4964,-4.2172 -1.2923,-6.46184 0.34,-4.35323 0.6801,-8.63845 1.2243,-12.99168 0.5442,-4.14918 1.2924,-8.29836 1.9726,-12.51556 0.5441,-3.74106 1.0202,-7.55014 1.6324,-11.2912 0.4762,-2.51672 1.1564,-5.03343 1.8365,-7.55015 0.2041,-0.88425 0.6122,-1.7685 0.8843,-2.72077 0.3401,-2.44869 -0.2041,-4.69333 -1.9045,-6.59787 -1.8366,0.81623 -2.3127,1.15633 -2.5848,2.04058 -0.5441,2.24463 -1.0883,4.42125 -1.4964,6.66589 -0.8843,4.55729 -1.7685,9.11459 -2.5847,13.67188 -0.7483,4.14918 -1.4965,8.29836 -2.1086,12.51555 -0.5442,3.74107 -0.8843,7.55015 -1.2924,11.35923 -0.2041,2.51671 -0.4081,5.10145 -0.4761,7.68618 -0.068,1.02029 0,2.17662 0.3401,3.19691 0.3401,0.88425 1.2923,1.63246 1.5644,2.58473 0.6802,2.04058 2.3127,2.99285 3.9451,4.01314 2.2447,1.42841 3.8771,1.29237 5.7136,-0.68019 1.3604,-1.49643 2.5848,-3.19691 3.6731,-4.96541 1.0883,-1.90454 1.9045,-4.01314 2.7888,-6.05372 1.5644,-3.537 3.1969,-7.14203 4.6253,-10.74705 1.2924,-3.26493 2.2446,-6.59787 3.3329,-9.8628 0.1361,-0.40812 0.4762,-0.74821 0.6802,-1.08831 0.1361,1.02029 0,1.83652 0,2.72077 0,1.7685 0,3.46899 0.068,5.23749 0.068,1.97256 0.068,3.94512 0.2041,5.91768 0.2721,2.24464 0.6802,4.48927 1.0203,6.73391 0.068,0.47614 0.2721,0.88425 0.4081,1.29237 0.8162,2.78879 3.0609,4.42125 5.3055,6.05372 2.6528,1.83652 5.1695,1.83652 7.8222,0.068 2.3807,-1.63247 4.2172,-3.67305 5.9177,-5.9857 3.0609,-4.14918 5.1695,-8.77449 7.3461,-13.39981 2.1086,-4.69333 3.8091,-9.65874 5.1695,-14.62415 2.2446,-8.29835 3.3329,-16.80077 3.605,-25.3712 0.136,-4.82937 0.5442,-9.65874 -1.0203,-14.35208 v 0 z"
         style="font-style:normal;font-variant:normal;font-weight:normal;font-stretch:normal;font-size:medium;line-height:125%;font-family:'Hello Santtiny';-inkscape-font-specification:'Hello Santtiny';letter-spacing:0.37px;word-spacing:0px;fill:#1e1e1e;fill-opacity:1;stroke:none;stroke-width:1px;stroke-linecap:butt;stroke-linejoin:miter;stroke-opacity:1"
         id="path4226"
         inkscape:connector-curvature="0" /><path
         d="m 1636.3045,529.47048 c 0.4762,-0.74821 0.8163,-1.56444 1.3604,-2.24464 2.7208,-3.40096 4.8294,-7.21004 6.87,-11.08714 1.8365,-3.53701 3.1289,-7.41411 4.5573,-11.15517 1.6324,-4.42125 2.1766,-8.91053 -0.5442,-13.46782 -0.4081,-0.20406 -1.0883,-0.54416 -1.7685,-0.81623 -0.8842,-0.40812 -1.7685,-0.3401 -2.5167,0.27207 -1.1563,0.95227 -2.3127,1.90454 -3.3329,2.92483 -2.1767,2.1086 -3.537,4.89739 -4.8294,7.55015 -2.5847,5.16946 -4.5573,10.54299 -6.4618,15.98453 -0.9523,2.72078 -1.7685,5.57759 -2.7208,8.36638 -0.4081,1.15633 -1.0883,2.24464 -1.2924,3.46898 -0.4081,2.1086 -1.3604,4.01314 -2.0406,5.9857 -0.8842,2.58474 -1.9045,5.10145 -2.8568,7.68619 -0.6802,1.83652 -1.0203,3.8771 -1.9725,5.57758 -1.9046,3.40096 -2.2447,7.34608 -3.537,10.88309 0.7482,1.36038 1.4284,2.58473 2.6527,3.46898 1.1563,-0.13604 1.7685,-0.68019 2.1766,-1.70048 0.4762,-1.15633 1.0203,-2.24464 1.7005,-3.33295 2.6528,-4.08115 6.1218,-7.34608 9.5227,-10.81507 0.2721,-0.27207 0.6802,-0.47613 1.2244,-0.95227 0,0.61218 0,0.95227 -0.068,1.15633 -0.5441,1.83652 -1.0202,3.67304 -1.7004,5.44155 -0.7482,2.17661 -1.1564,4.21719 -0.7482,6.52985 0.34,1.63246 1.5644,2.58473 2.5167,3.80908 0.6121,0.88425 1.4284,1.15633 2.4487,1.08831 3.9451,-0.40811 7.142,-2.44869 10.1348,-4.69333 0.4762,-0.3401 0.8163,-0.88425 1.0203,-1.42841 0.2041,-0.54415 0.2721,-1.22434 0.068,-1.70048 -0.272,-0.68019 -1.0202,-0.81623 -1.7004,-0.61217 -0.6802,0.20405 -1.3604,0.40811 -2.0406,0.74821 -1.8365,0.74821 -3.6731,1.63246 -5.5096,2.44869 -0.7482,0.3401 -1.5644,0.6802 -2.5847,0.3401 0,-0.40812 -0.068,-0.74821 0,-1.08831 0.5441,-2.1086 1.1563,-4.14918 1.7685,-6.18976 0.4761,-1.7685 1.2243,-3.537 1.4964,-5.3055 0.2041,-1.42841 0.2041,-2.99285 -0.136,-4.35324 -0.3401,-1.15633 -1.3604,-2.1086 -2.0406,-3.06087 -2.5167,-0.47613 -3.1289,-0.068 -9.8628,5.9857 1.1563,-1.70048 1.9726,-2.92483 2.8568,-4.14918 2.6528,-3.8771 5.2375,-7.68618 7.8902,-11.56328 z m -3.741,-5.84966 c 1.3604,-3.80908 2.5847,-7.68618 4.1492,-11.42724 1.5644,-3.80908 3.2649,-7.55015 5.1694,-11.22319 0.8843,-1.63246 2.3807,-2.92483 3.537,-4.42125 0.2721,0.13603 0.4762,0.20405 0.6802,0.34009 -0.5441,2.24464 -1.2923,4.48928 -1.5644,6.73391 -0.2721,2.31266 -1.7005,4.01314 -2.4487,6.05372 -0.8162,2.04058 -1.7005,4.08116 -2.8568,5.91768 -2.1766,3.67305 -4.6253,7.21005 -6.938,10.81507 -0.136,0.20406 -0.3401,0.40812 -0.7482,0.40812 0.3401,-1.02029 0.6122,-2.17662 1.0203,-3.19691 z"
         style="font-style:normal;font-variant:normal;font-weight:normal;font-stretch:normal;font-size:medium;line-height:125%;font-family:'Hello Santtiny';-inkscape-font-specification:'Hello Santtiny';letter-spacing:0.37px;word-spacing:0px;fill:#1e1e1e;fill-opacity:1;stroke:none;stroke-width:1px;stroke-linecap:butt;stroke-linejoin:miter;stroke-opacity:1"
         id="path4228"
         inkscape:connector-curvature="0" /><path
         d="m 1664.0959,550.82855 c -0.3401,-1.15633 -0.6802,-2.24464 -1.0203,-3.46899 -0.7482,-0.13604 -1.5644,-0.27208 -2.3807,-0.47613 -0.204,-0.61218 -0.4081,-1.22435 -0.6802,-1.83653 -0.7482,-1.56444 -2.3126,-2.51671 -4.1491,-2.10859 -1.9046,0.47613 -3.401,1.49642 -4.7614,2.72077 -1.6325,1.49642 -3.1969,2.99285 -4.4893,4.76135 -1.3604,1.7685 -2.3807,3.8771 -1.4284,6.18976 0.6802,1.63246 1.5645,3.12889 2.2447,4.42125 4.9654,1.49643 7.6861,-1.83652 10.815,-4.08116 0.5442,2.04058 0.9523,4.01314 1.4284,5.91768 0.3401,1.36039 1.2924,2.04058 2.9929,2.24464 0.136,-0.61217 0.4081,-1.15633 0.2721,-1.63246 -0.9523,-3.12889 -0.6802,-6.25778 0.136,-9.38667 0.3401,-1.08831 0.6802,-2.24463 1.0203,-3.26492 z m -6.1898,-0.54416 c -2.2446,2.4487 -4.9654,4.35324 -7.8222,6.05372 -0.136,0.13604 -0.4081,0 -0.7482,0 -0.136,-1.42841 0.7482,-2.58473 1.4284,-3.537 1.8365,-2.38068 5.6456,-4.96541 7.6182,-5.30551 0.272,1.08831 0.272,1.97256 -0.4762,2.78879 z"
         style="font-style:normal;font-variant:normal;font-weight:normal;font-stretch:normal;font-size:medium;line-height:125%;font-family:'Hello Santtiny';-inkscape-font-specification:'Hello Santtiny';letter-spacing:0.37px;word-spacing:0px;fill:#1e1e1e;fill-opacity:1;stroke:none;stroke-width:1px;stroke-linecap:butt;stroke-linejoin:miter;stroke-opacity:1"
         id="path4230"
         inkscape:connector-curvature="0" /><path
         d="m 1712.6289,519.26759 c -4.7614,0.20405 -9.5908,0.47613 -14.3521,0.74821 -1.3604,0.068 -2.7888,0.34009 -4.4213,-0.13604 0.8163,-1.56444 1.5645,-2.99285 2.1767,-4.48928 1.2243,-3.26492 2.2446,-6.59787 3.673,-9.79478 0.6802,-1.49642 0.7482,-2.92483 0.2721,-4.35323 -0.4081,-1.42841 -0.4081,-2.92483 -1.6325,-4.01314 -2.1766,-0.13604 -3.741,0.3401 -5.1695,1.90454 -1.6324,1.7685 -2.5167,3.80908 -3.9451,5.57758 -1.9045,2.24464 -2.7888,4.96541 -3.8091,7.55015 -0.6801,1.63246 -1.4964,3.33294 -2.1766,4.96541 -0.5441,1.29236 -0.8842,2.65275 -1.2923,4.01314 -0.8843,0.13603 -1.6325,0.34009 -2.3127,0.47613 -3.1969,0.47614 -6.3938,0.81623 -9.5227,1.49643 -2.5847,0.54415 -5.0334,1.36038 -7.4821,2.17661 -1.3604,0.47614 -1.7685,1.56445 -1.5645,2.7888 0.2041,1.02028 1.0203,1.56444 2.1767,1.70048 0.6121,0.068 1.1563,0.27208 1.7004,0.34009 0.1361,0 0.2721,-0.13603 0.4762,-0.20405 -0.1361,-0.40812 -0.2041,-0.88425 -0.3401,-1.42841 4.9654,-1.02029 9.9308,-1.4284 14.7602,-1.97256 -1.0203,3.19691 -1.9726,6.18976 -2.9249,9.25063 -0.4761,1.63246 -1.1563,3.12889 -2.2446,4.48927 -2.5167,3.12889 -5.0334,6.3258 -7.5501,9.45469 -0.6122,0.88425 -1.2244,1.83652 -1.7005,2.72077 -0.2041,0.54415 -0.1361,1.08831 0.6802,1.29237 3.0608,-1.76851 4.2852,-4.76136 7.074,-6.6659 -0.1361,1.42841 -0.4762,2.78879 -0.8843,4.14918 -0.3401,1.08831 -1.0203,2.04058 -1.2923,3.12889 -0.7483,2.24464 -1.3604,4.48927 -1.9046,6.80193 -1.0883,4.55729 -2.1086,9.18261 -2.9928,13.7399 -0.3401,1.90454 -0.3401,3.8771 -0.2721,5.78164 0.068,1.56445 0.9523,2.92483 2.7888,4.14918 0.4761,-0.74821 0.8842,-1.15633 0.9522,-1.63246 0.3401,-1.22435 0.4082,-2.4487 0.6122,-3.67305 0.4762,-2.58473 0.8163,-5.16946 1.4284,-7.7542 0.6122,-2.78879 1.7005,-5.57758 2.2447,-8.43439 0.6802,-3.40097 2.3126,-6.73391 2.4487,-10.27092 0,-0.54415 0.204,-1.08831 0.4081,-1.63246 1.2243,-3.53701 2.5847,-7.07401 3.605,-10.61101 0.4761,-1.90454 1.2924,-3.46899 2.6528,-5.03343 1.0883,-1.29237 2.1086,-2.58474 3.1288,-3.94512 1.5645,-2.17662 3.1289,-4.35324 4.7614,-6.59788 6.3938,-0.61217 12.7196,-1.15632 19.0454,-1.70048 1.2243,-0.13604 2.5167,-0.20406 3.673,-0.47613 1.4284,-0.3401 2.9249,-0.74822 3.265,-2.38068 -1.0883,-1.29237 -2.5848,-1.56444 -4.2172,-1.49642 z m -23.9428,0.74821 c -0.2041,0.34009 -0.6802,0.54415 -1.1564,0.88425 -0.136,-0.3401 -0.34,-0.47614 -0.272,-0.61217 0.6802,-2.04058 1.1563,-4.14918 2.1766,-6.05372 1.5644,-3.12889 3.537,-6.18976 5.3735,-9.25063 0.068,-0.20406 0.3401,-0.3401 0.8162,-0.68019 -1.3603,3.60502 -2.4487,6.86995 -3.809,10.13487 -0.8843,1.90455 -2.0406,3.74107 -3.1289,5.57759 z"
         style="font-style:normal;font-variant:normal;font-weight:normal;font-stretch:normal;font-size:medium;line-height:125%;font-family:'Hello Santtiny';-inkscape-font-specification:'Hello Santtiny';letter-spacing:0.37px;word-spacing:0px;fill:#1e1e1e;fill-opacity:1;stroke:none;stroke-width:1px;stroke-linecap:butt;stroke-linejoin:miter;stroke-opacity:1"
         id="path4232"
         inkscape:connector-curvature="0" /><path
         d="m 1707.9729,545.25096 c 0,-0.88425 -0.2041,-1.7685 -1.4284,-2.1086 -0.2041,0.27208 -0.6122,0.54416 -0.6802,0.95227 -1.2924,3.94512 -3.8771,7.07401 -6.938,9.79478 -1.7685,1.63247 -3.8091,2.99285 -6.2578,3.67305 -1.4964,0.40811 -2.9248,0.27207 -4.2852,-0.20406 -1.9045,-0.68019 -2.1766,-1.49643 -1.5644,-3.67304 0.204,0 0.4761,-0.068 0.6802,0 3.1969,0.68019 5.9857,-0.40812 8.5024,-2.24464 2.3807,-1.83652 4.2852,-5.30551 1.9725,-8.57043 -0.136,-0.27208 -0.272,-0.54416 -0.4081,-0.81624 -1.2243,-2.31265 -3.1289,-2.99285 -5.5095,-1.97256 -0.9523,0.40812 -1.7685,1.15633 -2.5848,1.76851 -0.3401,0.27207 -0.5441,0.68019 -0.8842,0.95227 -2.3807,1.83652 -4.0812,4.21719 -5.1015,7.07401 -0.6802,1.90454 -1.1563,3.94512 -0.272,5.98569 0.4081,0.95227 0.9522,1.83653 1.4964,2.72078 1.9725,2.99285 5.1695,4.28521 8.6384,3.537 1.9046,-0.47613 3.6051,-1.29237 5.2375,-2.38067 3.333,-2.31266 5.8497,-5.37353 8.0263,-8.7745 1.0883,-1.70048 1.4964,-3.67304 1.3604,-5.71362 z m -13.4678,-1.4284 c 0.272,2.85681 -2.0406,5.10144 -5.5776,5.37352 1.3604,-2.44869 3.1289,-4.2172 5.5776,-5.37352 z"
         style="font-style:normal;font-variant:normal;font-weight:normal;font-stretch:normal;font-size:medium;line-height:125%;font-family:'Hello Santtiny';-inkscape-font-specification:'Hello Santtiny';letter-spacing:0.37px;word-spacing:0px;fill:#1e1e1e;fill-opacity:1;stroke:none;stroke-width:1px;stroke-linecap:butt;stroke-linejoin:miter;stroke-opacity:1"
         id="path4234"
         inkscape:connector-curvature="0" /><path
         d="m 1736.6899,494.71261 c -0.6802,-1.4284 -1.4284,-2.92483 -2.1766,-4.48927 -2.4487,-0.3401 -2.6527,-0.3401 -4.1492,0.81623 -0.8162,0.6802 -1.5644,1.36039 -2.1766,2.17662 -1.4964,1.83652 -2.5847,3.94512 -3.605,6.12174 -1.2924,2.78879 -2.6528,5.50956 -4.0131,8.29835 -1.6325,3.46899 -3.265,6.93797 -4.8294,10.40696 -0.3401,0.74821 -0.6122,1.49642 -0.9523,2.31265 -0.6802,1.83653 -1.4284,3.67305 -2.1766,5.50957 -0.6802,1.70048 -1.4964,3.33294 -2.1086,5.03343 -0.9523,2.65275 -1.4964,5.37352 -2.6528,7.89024 -1.4964,3.19691 -2.3126,6.52985 -3.1969,9.8628 -1.0203,3.80908 -1.6324,7.68618 -1.7004,11.6313 0,0.68019 0,1.42841 -0.068,2.17662 -0.3401,4.55729 1.2924,8.23033 5.1015,10.81507 1.5644,1.08831 2.3126,0.81623 3.3329,-0.88425 -1.2923,-2.24464 -1.2923,-2.24464 -3.1969,-3.53701 -1.3604,-3.80908 -0.9522,-7.61816 -0.4081,-11.2912 0.5442,-4.08116 1.9045,-8.02628 2.8568,-12.03942 0.4081,-1.70048 1.2924,-3.12889 2.5167,-4.35324 1.2924,-1.22434 2.5848,-2.38067 3.8091,-3.67304 1.8365,-2.04058 3.8771,-3.94512 5.4416,-6.18976 3.673,-5.16946 6.6659,-10.74705 9.3186,-16.52869 1.4284,-3.19691 2.3127,-6.66589 3.469,-9.99884 1.0203,-3.19691 1.7005,-6.52985 1.5644,-10.06686 z m -4.6253,4.01314 c -0.2721,1.08831 -0.6802,2.1086 -0.8842,3.19691 -0.5442,3.12889 -2.0406,5.91768 -3.1969,8.77449 -2.3127,5.91768 -5.7817,11.22319 -9.0466,16.66473 -0.8843,1.42841 -1.9726,2.72078 -2.9248,4.08116 -0.1361,-0.068 -0.2721,-0.20406 -0.4082,-0.34009 4.6934,-11.42725 9.3867,-22.92251 15.6445,-33.66956 0.204,0 0.3401,0.068 0.5441,0.068 0.068,0.40811 0.3401,0.81623 0.2721,1.22434 z"
         style="font-style:normal;font-variant:normal;font-weight:normal;font-stretch:normal;font-size:medium;line-height:125%;font-family:'Hello Santtiny';-inkscape-font-specification:'Hello Santtiny';letter-spacing:0.37px;word-spacing:0px;fill:#1e1e1e;fill-opacity:1;stroke:none;stroke-width:1px;stroke-linecap:butt;stroke-linejoin:miter;stroke-opacity:1"
         id="path4236"
         inkscape:connector-curvature="0" /><path
         d="m 1743.8023,555.04574 c -0.6802,-0.74821 -1.4284,-1.08831 -2.3806,-0.74821 -1.1564,0.3401 -2.3127,0.61217 -3.401,1.02029 -1.2243,0.40812 -2.3807,1.02029 -3.7411,1.56444 0,-0.81623 -0.068,-1.4284 0,-1.97256 0.068,-2.51671 0.2041,-5.03342 0.2721,-7.48212 0,-1.63246 -0.204,-3.26493 -1.1563,-4.62531 -0.8162,0 -1.4964,0 -2.4487,0 -0.8843,2.24463 -2.1766,4.21719 -3.7411,6.05372 -1.6324,1.90454 -3.2649,3.60502 -5.2375,5.03342 -0.5441,0.40812 -1.0883,0.74822 -1.9045,0.20406 -0.4081,-2.38067 2.1086,-4.48927 0.9523,-7.00599 -1.5645,-0.40811 -2.1086,0.81624 -2.7208,1.70049 -2.1086,3.1969 -2.3127,6.52985 -0.8843,9.79478 3.0609,1.97256 5.5776,0.88425 7.8223,-0.81623 1.4964,-1.15633 2.7207,-2.72078 4.0131,-4.08116 0.4761,-0.54416 0.9523,-1.08831 1.7005,-1.90454 0.6122,2.72077 -0.2721,4.82937 -0.2041,7.27806 -2.5847,1.36039 -4.5573,3.33295 -6.9379,4.82937 -1.8366,1.15633 -3.401,2.78879 -5.1015,4.14918 -5.0334,4.2172 -9.7267,8.84251 -14.148,13.67188 -3.605,3.8771 -5.4415,8.70647 -6.938,13.67188 -0.068,0.20406 -0.136,0.40812 -0.068,0.61218 0.3401,2.31265 0.2721,4.62531 1.2244,6.73391 0.8162,1.7685 1.9725,3.19691 3.8771,3.67304 2.4487,0.61218 4.8293,0.40812 7.21,-0.40811 6.5979,-2.24464 12.1074,-6.05372 15.8485,-12.03942 1.2244,-2.04058 2.5847,-4.08116 3.2649,-6.25778 0.6122,-2.1086 1.1564,-4.28522 1.7005,-6.39381 0.6122,-2.17662 1.1563,-4.42126 1.5645,-6.6659 0.3401,-1.83652 0.4761,-3.67304 0.8162,-5.50956 0.3401,-2.04058 0.6802,-4.14918 1.0203,-5.9857 0.4761,-0.3401 0.6802,-0.54415 0.8842,-0.61217 1.9046,-1.08831 3.9452,-2.04058 5.7817,-3.26493 1.4284,-1.02029 3.2649,-1.90454 3.0608,-4.2172 z m -14.6921,16.93681 c -0.2721,1.56444 -0.7482,3.06087 -1.0203,4.55729 -0.5442,2.65276 -1.0203,5.30551 -2.4487,7.75421 -0.6802,1.15632 -1.2924,2.44869 -1.7005,3.80908 -0.6122,2.04058 -2.1086,3.537 -3.401,5.03343 -2.1086,2.38067 -4.5573,4.48927 -7.4821,5.9857 -2.1766,1.15632 -4.4212,2.10859 -6.8699,2.44869 -0.8163,0.068 -1.6325,0.068 -2.3807,-0.13604 -1.9726,-0.40811 -2.5167,-1.29236 -2.3807,-3.33294 0.068,-1.70049 0.7482,-3.26493 1.5645,-4.76136 1.4964,-2.78879 2.9248,-5.6456 5.1014,-7.95826 2.4487,-2.58473 4.7614,-5.23748 7.4141,-7.61816 3.8091,-3.46898 7.8222,-6.73391 11.7673,-10.06686 0.8163,-0.68019 1.7005,-1.22434 2.7208,-1.90454 -0.3401,2.31266 -0.5441,4.2172 -0.8842,6.18976 z"
         style="font-style:normal;font-variant:normal;font-weight:normal;font-stretch:normal;font-size:medium;line-height:125%;font-family:'Hello Santtiny';-inkscape-font-specification:'Hello Santtiny';letter-spacing:0.37px;word-spacing:0px;fill:#1e1e1e;fill-opacity:1;stroke:none;stroke-width:1px;stroke-linecap:butt;stroke-linejoin:miter;stroke-opacity:1"
         id="path4238"
         inkscape:connector-curvature="0" /><path
         d="m 1826.3289,506.07184 c -3.8771,3.46898 -7.8902,6.86995 -12.5156,9.25063 -0.6801,0.34009 -1.2923,0.74821 -1.0883,2.04057 1.0883,-0.20405 2.2447,-0.20405 3.1969,-0.61217 2.6528,-1.22435 5.3056,-2.38067 7.6862,-3.94512 3.333,-2.1086 6.6659,-4.28522 9.5227,-7.27807 2.7208,-2.85681 3.0609,-6.18975 2.7208,-9.86279 -0.068,-0.6802 -0.4081,-1.36039 -0.8162,-1.90455 -1.2244,-1.56444 -2.7888,-2.65275 -4.8294,-2.99285 -2.7888,-0.34009 -5.5776,-0.068 -8.3664,0.3401 -5.1014,0.81623 -9.9308,2.4487 -14.7602,4.28522 -5.1694,2.04058 -10.2709,4.28521 -15.3723,6.52985 -6.5979,2.92483 -12.4476,7.27807 -18.4333,11.29121 -3.809,2.51671 -7.074,5.71362 -10.4749,8.91053 -3.9452,3.67304 -3.8771,11.76734 0.272,15.23632 3.265,2.65276 6.938,4.08116 10.7471,5.30551 3.8771,1.22435 7.8902,2.04058 11.8354,2.99285 4.4212,0.95227 8.8425,1.7685 13.2637,2.78879 4.7614,1.08831 9.5227,2.24464 14.2841,3.537 2.2446,0.61218 4.3532,1.90454 5.9857,3.74107 0.9522,1.15632 2.0406,2.58473 1.2923,4.21719 -0.8842,2.04058 -1.9045,4.01314 -3.1969,5.84966 -3.673,5.23749 -8.6384,8.91053 -14.08,11.76734 -3.809,1.97256 -7.8222,3.40097 -12.0394,4.08116 -3.2649,0.61218 -6.5979,1.22435 -9.9308,-1.15633 -0.3401,-2.38067 0.4761,-4.55729 1.7685,-6.25777 2.4487,-3.40097 5.5776,-6.05372 9.2506,-7.89024 1.0883,-0.54416 2.0406,-1.29237 2.9929,-2.04058 0.8842,-0.68019 1.4964,-1.63246 1.4964,-2.85681 -0.7482,-1.36039 -1.9045,-1.36039 -2.9929,-1.15633 -1.2923,0.20406 -2.6527,0.54415 -3.809,1.15633 -4.2172,2.44869 -8.4344,5.03343 -10.475,9.99884 -2.9929,3.74106 -1.8365,7.95826 -1.1563,12.03941 0.068,0.27208 0.3401,0.54416 0.5441,0.74822 1.2244,2.04058 3.1289,2.85681 5.1695,3.1969 2.8568,0.47614 5.6456,0.20406 8.4344,-0.40811 8.7745,-1.90454 16.7327,-5.50957 23.3986,-12.03942 2.7208,-2.72077 5.2375,-5.6456 6.87,-9.31864 1.6324,-3.53701 1.5644,-7.14203 0.5441,-10.81508 -0.204,-0.81623 -0.4081,-1.7685 -0.8842,-2.38067 -1.5645,-1.83652 -3.401,-3.40097 -5.5096,-4.48928 -2.9248,-1.4284 -5.9857,-2.58473 -9.2506,-3.1969 -3.7411,-0.74822 -7.5502,-1.36039 -11.2912,-2.1086 -5.1695,-1.08831 -10.339,-2.17662 -15.3724,-3.46899 -5.1694,-1.36038 -10.2709,-2.92483 -15.0322,-5.57758 -0.6802,-0.40812 -1.2924,-1.02029 -1.8366,-1.63246 -1.1563,-1.36039 -1.0883,-2.04058 0,-3.46899 1.7005,-2.17662 3.469,-4.2172 5.6456,-5.91768 5.0335,-3.94512 10.2029,-7.7542 15.6445,-11.08715 7.074,-4.28521 14.5561,-7.68618 22.2423,-10.47497 5.3055,-1.97256 10.543,-3.8771 16.0525,-4.62531 1.9726,-0.27208 4.0132,-0.3401 5.9857,-0.20406 1.1564,0.068 2.5168,0.3401 2.9249,2.24464 -2.0406,2.51671 -3.8771,5.44154 -6.2578,7.61816 z"
         style="font-style:normal;font-variant:normal;font-weight:normal;font-stretch:normal;font-size:medium;line-height:125%;font-family:'Hello Santtiny';-inkscape-font-specification:'Hello Santtiny';letter-spacing:0.37px;word-spacing:0px;fill:#1e1e1e;fill-opacity:1;stroke:none;stroke-width:1px;stroke-linecap:butt;stroke-linejoin:miter;stroke-opacity:1"
         id="path4242"
         inkscape:connector-curvature="0" /><path
         d="m 1855.0853,537.56478 c -1.7685,-0.61217 -2.9249,-0.13604 -3.8771,1.15633 -2.4487,3.33294 -5.0335,6.52985 -7.5502,9.79478 -0.4081,0.47613 -0.7482,1.02029 -1.0883,1.56444 -0.136,-0.068 -0.2721,-0.13604 -0.4081,-0.20405 0.136,-1.29237 0.3401,-2.51672 0.4761,-3.80909 -0.3401,-1.22434 -0.7482,-2.38067 -1.0883,-3.46898 -1.0883,-0.54416 -1.9045,-0.40812 -2.5847,0.3401 -0.7482,0.81623 -1.4964,1.63246 -2.2447,2.44869 -0.5441,0.68019 -1.1563,1.42841 -1.8365,2.31266 -0.5441,-1.83652 0.5442,-3.60503 -1.0883,-4.82937 -1.3604,0.61217 -1.8365,1.7685 -2.2446,2.92483 -0.8843,2.51671 -1.6325,5.10144 -2.7888,7.48212 -1.2244,2.65275 -0.136,4.62531 1.3604,6.93797 0.8842,-0.54415 1.7005,-0.95227 2.2446,-1.56444 1.0203,-1.08831 1.9046,-2.24464 2.7888,-3.46899 0.4761,-0.61217 0.9523,-1.22435 1.8365,-1.49642 0.4762,1.15632 0.8163,2.31265 1.3604,3.33294 0.7482,1.36039 1.7005,1.49643 2.9929,0.74822 1.9725,-1.22435 3.537,-2.7888 4.8293,-4.76136 0.9523,-1.36038 1.9726,-2.65275 3.0609,-4.21719 0,0.61217 0.068,1.02029 0,1.4284 -0.3401,1.29237 -0.7482,2.51672 -1.0883,3.80908 -0.6122,2.31266 -1.4284,4.69334 -1.8365,7.07401 -0.5442,2.85681 -0.8843,5.78164 -1.1564,8.70647 -0.204,1.49643 0.4762,2.72078 2.1086,3.60503 0.2721,-0.47614 0.5442,-0.74822 0.6122,-1.08831 0.4761,-2.4487 0.8162,-4.89739 1.4284,-7.34609 1.2924,-4.96541 2.6528,-9.93082 4.0812,-14.89623 0.4761,-1.7685 1.0883,-3.537 1.5644,-5.3055 0.2721,-1.22435 0.5442,-2.4487 0.6122,-3.67305 0,-1.22434 -0.3401,-2.44869 -0.4761,-3.537 z"
         style="font-style:normal;font-variant:normal;font-weight:normal;font-stretch:normal;font-size:medium;line-height:125%;font-family:'Hello Santtiny';-inkscape-font-specification:'Hello Santtiny';letter-spacing:0.37px;word-spacing:0px;fill:#1e1e1e;fill-opacity:1;stroke:none;stroke-width:1px;stroke-linecap:butt;stroke-linejoin:miter;stroke-opacity:1"
         id="path4244"
         inkscape:connector-curvature="0" /><path
         d="m 1861.9267,540.89773 c -1.3604,-0.40812 -2.1766,0 -2.5848,1.15632 -0.7482,1.83653 -1.4964,3.60503 -2.0405,5.50957 -0.4082,1.49642 -0.4082,3.19691 -0.6802,4.76135 -0.6802,3.06087 -0.2721,5.9857 1.3603,8.70647 0.4762,0.74821 1.0884,1.36039 1.7686,1.90454 0.9522,0.6802 1.9045,0.74822 2.8568,-0.20406 0.6121,-2.24463 -0.9523,-3.537 -2.4487,-4.76135 0.4761,-4.89739 1.4284,-9.5227 3.4009,-13.87594 -0.6121,-1.22434 -1.1563,-2.24463 -1.6324,-3.1969 z m 3.537,-12.92367 c -3.7411,-0.27208 -6.4619,1.56444 -7.7542,5.16946 0.272,1.02029 0.272,2.31266 1.4964,2.99285 0.2721,-0.13603 0.6122,-0.20405 0.7482,-0.40811 1.3604,-2.04058 3.1969,-3.40097 5.3055,-4.5573 1.4284,-0.81623 1.4284,-1.70048 0.2041,-3.1969 z"
         style="font-style:normal;font-variant:normal;font-weight:normal;font-stretch:normal;font-size:medium;line-height:125%;font-family:'Hello Santtiny';-inkscape-font-specification:'Hello Santtiny';letter-spacing:0.37px;word-spacing:0px;fill:#1e1e1e;fill-opacity:1;stroke:none;stroke-width:1px;stroke-linecap:butt;stroke-linejoin:miter;stroke-opacity:1"
         id="path4246"
         inkscape:connector-curvature="0" /><path
         d="m 1914.171,519.26759 c -4.7614,0.20405 -9.5908,0.47613 -14.3521,0.74821 -1.3604,0.068 -2.7888,0.34009 -4.4213,-0.13604 0.8163,-1.56444 1.5645,-2.99285 2.1766,-4.48928 1.2244,-3.26492 2.2447,-6.59787 3.6731,-9.79478 0.6802,-1.49642 0.7482,-2.92483 0.2721,-4.35323 -0.4082,-1.42841 -0.4082,-2.92483 -1.6325,-4.01314 -2.1766,-0.13604 -3.7411,0.3401 -5.1695,1.90454 -1.6324,1.7685 -2.5167,3.80908 -3.9451,5.57758 -1.9045,2.24464 -2.7888,4.96541 -3.8091,7.55015 -0.6802,1.63246 -1.4964,3.33294 -2.1766,4.96541 -0.5441,1.29236 -0.8842,2.65275 -1.2924,4.01314 -0.8842,0.13603 -1.6324,0.34009 -2.3126,0.47613 -3.1969,0.47614 -6.3938,0.81623 -9.5227,1.49643 -2.5847,0.54415 -5.0334,1.36038 -7.4821,2.17661 -1.3604,0.47614 -1.7685,1.56445 -1.5645,2.7888 0.2041,1.02028 1.0203,1.56444 2.1766,1.70048 0.6122,0.068 1.1564,0.27208 1.7005,0.34009 0.1361,0 0.2721,-0.13603 0.4762,-0.20405 -0.1361,-0.40812 -0.2041,-0.88425 -0.3401,-1.42841 4.9654,-1.02029 9.9308,-1.4284 14.7601,-1.97256 -1.0202,3.19691 -1.9725,6.18976 -2.9248,9.25063 -0.4761,1.63246 -1.1563,3.12889 -2.2446,4.48927 -2.5167,3.12889 -5.0334,6.3258 -7.5502,9.45469 -0.6121,0.88425 -1.2243,1.83652 -1.7004,2.72077 -0.2041,0.54415 -0.1361,1.08831 0.6801,1.29237 3.0609,-1.76851 4.2853,-4.76136 7.0741,-6.6659 -0.1361,1.42841 -0.4762,2.78879 -0.8843,4.14918 -0.3401,1.08831 -1.0203,2.04058 -1.2924,3.12889 -0.7482,2.24464 -1.3603,4.48927 -1.9045,6.80193 -1.0883,4.55729 -2.1086,9.18261 -2.9929,13.7399 -0.34,1.90454 -0.34,3.8771 -0.272,5.78164 0.068,1.56445 0.9522,2.92483 2.7888,4.14918 0.4761,-0.74821 0.8842,-1.15633 0.9522,-1.63246 0.3401,-1.22435 0.4081,-2.4487 0.6122,-3.67305 0.4761,-2.58473 0.8162,-5.16946 1.4284,-7.7542 0.6122,-2.78879 1.7005,-5.57758 2.2446,-8.43439 0.6802,-3.40097 2.3127,-6.73391 2.4487,-10.27092 0,-0.54415 0.2041,-1.08831 0.4082,-1.63246 1.2243,-3.53701 2.5847,-7.07401 3.605,-10.61101 0.4761,-1.90454 1.2924,-3.46899 2.6527,-5.03343 1.0883,-1.29237 2.1086,-2.58474 3.1289,-3.94512 1.5645,-2.17662 3.1289,-4.35324 4.7614,-6.59788 6.3938,-0.61217 12.7196,-1.15632 19.0454,-1.70048 1.2243,-0.13604 2.5167,-0.20406 3.673,-0.47613 1.4284,-0.3401 2.9249,-0.74822 3.265,-2.38068 -1.0884,-1.29237 -2.5848,-1.56444 -4.2172,-1.49642 z m -23.9428,0.74821 c -0.2041,0.34009 -0.6802,0.54415 -1.1564,0.88425 -0.136,-0.3401 -0.3401,-0.47614 -0.272,-0.61217 0.6801,-2.04058 1.1563,-4.14918 2.1766,-6.05372 1.5644,-3.12889 3.537,-6.18976 5.3735,-9.25063 0.068,-0.20406 0.3401,-0.3401 0.8162,-0.68019 -1.3604,3.60502 -2.4487,6.86995 -3.8091,10.13487 -0.8842,1.90455 -2.0405,3.74107 -3.1288,5.57759 z"
         style="font-style:normal;font-variant:normal;font-weight:normal;font-stretch:normal;font-size:medium;line-height:125%;font-family:'Hello Santtiny';-inkscape-font-specification:'Hello Santtiny';letter-spacing:0.37px;word-spacing:0px;fill:#1e1e1e;fill-opacity:1;stroke:none;stroke-width:1px;stroke-linecap:butt;stroke-linejoin:miter;stroke-opacity:1"
         id="path4248"
         inkscape:connector-curvature="0" /><path
         d="m 1905.3817,529.47048 c 0.4762,-0.74821 0.8163,-1.56444 1.3604,-2.24464 2.7208,-3.40096 4.8294,-7.21004 6.87,-11.08714 1.8365,-3.53701 3.1289,-7.41411 4.5573,-11.15517 1.6324,-4.42125 2.1766,-8.91053 -0.5442,-13.46782 -0.4081,-0.20406 -1.0883,-0.54416 -1.7685,-0.81623 -0.8842,-0.40812 -1.7685,-0.3401 -2.5167,0.27207 -1.1563,0.95227 -2.3127,1.90454 -3.3329,2.92483 -2.1767,2.1086 -3.537,4.89739 -4.8294,7.55015 -2.5848,5.16946 -4.5573,10.54299 -6.4619,15.98453 -0.9522,2.72078 -1.7685,5.57759 -2.7207,8.36638 -0.4081,1.15633 -1.0883,2.24464 -1.2924,3.46898 -0.4081,2.1086 -1.3604,4.01314 -2.0406,5.9857 -0.8842,2.58474 -1.9045,5.10145 -2.8568,7.68619 -0.6802,1.83652 -1.0203,3.8771 -1.9725,5.57758 -1.9046,3.40096 -2.2447,7.34608 -3.537,10.88309 0.7482,1.36038 1.4284,2.58473 2.6527,3.46898 1.1563,-0.13604 1.7685,-0.68019 2.1766,-1.70048 0.4762,-1.15633 1.0203,-2.24464 1.7005,-3.33295 2.6528,-4.08115 6.1217,-7.34608 9.5227,-10.81507 0.2721,-0.27207 0.6802,-0.47613 1.2244,-0.95227 0,0.61218 0,0.95227 -0.068,1.15633 -0.5441,1.83652 -1.0202,3.67304 -1.7004,5.44155 -0.7483,2.17661 -1.1564,4.21719 -0.7483,6.52985 0.3401,1.63246 1.5645,2.58473 2.5168,3.80908 0.6121,0.88425 1.4284,1.15633 2.4487,1.08831 3.9451,-0.40811 7.142,-2.44869 10.1348,-4.69333 0.4762,-0.3401 0.8163,-0.88425 1.0203,-1.42841 0.2041,-0.54415 0.2721,-1.22434 0.068,-1.70048 -0.272,-0.68019 -1.0202,-0.81623 -1.7004,-0.61217 -0.6802,0.20405 -1.3604,0.40811 -2.0406,0.74821 -1.8365,0.74821 -3.6731,1.63246 -5.5096,2.44869 -0.7482,0.3401 -1.5644,0.6802 -2.5847,0.3401 0,-0.40812 -0.068,-0.74821 0,-1.08831 0.5441,-2.1086 1.1563,-4.14918 1.7685,-6.18976 0.4761,-1.7685 1.2243,-3.537 1.4964,-5.3055 0.2041,-1.42841 0.2041,-2.99285 -0.136,-4.35324 -0.3401,-1.15633 -1.3604,-2.1086 -2.0406,-3.06087 -2.5167,-0.47613 -3.1289,-0.068 -9.8628,5.9857 1.1563,-1.70048 1.9726,-2.92483 2.8568,-4.14918 2.6528,-3.8771 5.2375,-7.68618 7.8902,-11.56328 z m -3.741,-5.84966 c 1.3604,-3.80908 2.5847,-7.68618 4.1492,-11.42724 1.5644,-3.80908 3.2649,-7.55015 5.1694,-11.22319 0.8843,-1.63246 2.3807,-2.92483 3.537,-4.42125 0.2721,0.13603 0.4762,0.20405 0.6802,0.34009 -0.5441,2.24464 -1.2923,4.48928 -1.5644,6.73391 -0.2721,2.31266 -1.7005,4.01314 -2.4487,6.05372 -0.8162,2.04058 -1.7005,4.08116 -2.8568,5.91768 -2.1766,3.67305 -4.6253,7.21005 -6.938,10.81507 -0.136,0.20406 -0.3401,0.40812 -0.7482,0.40812 0.3401,-1.02029 0.6122,-2.17662 1.0203,-3.19691 z"
         style="font-style:normal;font-variant:normal;font-weight:normal;font-stretch:normal;font-size:medium;line-height:125%;font-family:'Hello Santtiny';-inkscape-font-specification:'Hello Santtiny';letter-spacing:0.37px;word-spacing:0px;fill:#1e1e1e;fill-opacity:1;stroke:none;stroke-width:1px;stroke-linecap:butt;stroke-linejoin:miter;stroke-opacity:1"
         id="path4250"
         inkscape:connector-curvature="0" /></g></g></svg>
