<?xml version="1.0" encoding="UTF-8" standalone="no"?>
<svg
   width="285.19699"
   height="275.54999"
   viewBox="0 0 285.19698 275.55"
   version="1.1"
   id="svg26"
   sodipodi:docname="spotlight logo.svg"
   inkscape:version="1.3 (0e150ed6c4, 2023-07-21)"
   xmlns:inkscape="http://www.inkscape.org/namespaces/inkscape"
   xmlns:sodipodi="http://sodipodi.sourceforge.net/DTD/sodipodi-0.dtd"
   xmlns="http://www.w3.org/2000/svg"
   xmlns:svg="http://www.w3.org/2000/svg"
   xmlns:rdf="http://www.w3.org/1999/02/22-rdf-syntax-ns#"
   xmlns:cc="http://creativecommons.org/ns#"
   xmlns:dc="http://purl.org/dc/elements/1.1/">
  <sodipodi:namedview
     id="namedview26"
     pagecolor="#ffffff"
     bordercolor="#666666"
     borderopacity="1.0"
     inkscape:showpageshadow="2"
     inkscape:pageopacity="0.0"
     inkscape:pagecheckerboard="0"
     inkscape:deskcolor="#d1d1d1"
     inkscape:zoom="1.4607423"
     inkscape:cx="48.947718"
     inkscape:cy="152.31982"
     inkscape:window-width="1680"
     inkscape:window-height="987"
     inkscape:window-x="-8"
     inkscape:window-y="-8"
     inkscape:window-maximized="1"
     inkscape:current-layer="svg26" />
  <defs
     id="defs1">
    <style
       id="style1">.a{fill:#fff;}</style>
  </defs>
  <title
     id="title1">SpotlightLogoRow</title>
  <path
     class="a"
     d="m 179.69099,71.424992 a 31.74,31.74 0 0 1 0,3.51 c -0.44,7 -3.54,12.18 -7.77,16.46 a 25,25 0 0 1 -17.44,7.190003 24.57,24.57 0 0 1 -17.79,-6.840003 25.2,25.2 0 0 1 -0.36,-36.78 c 4.21,-4.14 9,-6.53 16.26,-7.19 a 25.34,25.34 0 0 1 18.79,6.57 26.48,26.48 0 0 1 8.31,17.08 z m 100.59,86.570008 -7.53,14.53 a 44,44 0 0 0 -4.43,13.63 l -2.45,16.18 a 44,44 0 0 1 -23.77,32.72 l -14.63,7.33 a 44,44 0 0 0 -11.6,8.43 l -11.49,11.65 a 44,44 0 0 1 -38.46,12.5 l -16.15,-2.67 a 44,44 0 0 0 -14.33,0 l -16.15,2.67 a 44,44 0 0 1 -38.459989,-12.5 l -11.500003,-11.65 a 44,44 0 0 0 -11.6,-8.43 l -14.63,-7.33 a 44,44 0 0 1 -23.77,-32.71 l -2.45,-16.18 a 44,44 0 0 0 -4.43,-13.63 l -7.5300005,-14.53 a 44,44 0 0 1 0,-40.44 l 7.5300005,-14.53 a 44,44 0 0 0 4.43,-13.630008 l 2.45,-16.18 a 44,44 0 0 1 23.77,-32.73 l 14.63,-7.33 a 44,44 0 0 0 11.6,-8.43 l 11.490003,-11.65 A 44,44 0 0 1 119.28099,0.5849924 l 16.15,2.67 a 44,44 0 0 0 14.33,0 l 16.15,-2.67 a 44,44 0 0 1 38.46,12.4999996 l 11.49,11.65 a 44,44 0 0 0 11.6,8.43 l 14.63,7.33 a 44,44 0 0 1 23.77,32.72 l 2.45,16.18 a 44,44 0 0 0 4.43,13.630008 l 7.53,14.53 a 44,44 0 0 1 0.01,40.44 z m -86.59,-87.110008 a 36.52,36.52 0 0 0 -4.11,-15.38 40.05,40.05 0 0 0 -38.26,-21.66 c -1.62,0.16 -3,0.26 -4.43,0.54 a 39.59,39.59 0 0 0 -22.22,12.5 38.73,38.73 0 0 0 -10,29 c 0.91,11 5.76,20.39 12.92,26.530008 5.22,4.47 11.81,8.49 20.06,9.71 15.91,2.36 28.09,-3.94 36,-12.500005 a 38.79,38.79 0 0 0 10.04,-28.740003 z M 77.971001,151.275 c 2.86,-1.65 5.72,-3.33 8.49,-4.94 -1,-11.53 -1.93,-23.93 -2.79,-34.53 11.67,-4.89 19.999989,-14.440008 23.669989,-27.790008 3,-10.83 1.71,-23.55 -3.8,-30.57 a 17.76,17.76 0 0 0 -7.139989,-5.8 c -4.82,-1.76 -10.56,-0.4 -14.64,1.3 a 35.93,35.93 0 0 0 -6.24,3.6 64.24,64.24 0 0 0 -10.480003,9.18 c 3.37,29.62 6.77,60.710008 10.120003,91.000008 a 11.36,11.36 0 0 0 2.81,-1.45 z m 1.53,-85.000008 c 0.2,-0.95 2.36,-2.2 3.25,-2.78 a 10,10 0 0 1 5.07,-1.85 c 5.52,-0.18 6.76,4.54 7.13,9.8 a 55.72,55.72 0 0 1 0,8.45 c -0.74,9.3 -5.11,15.29 -12.37,18.340003 -0.61,-5.760003 -1,-12.850003 -1.72,-19.510003 -0.28,-2.74 -0.74,-6.29 -1.08,-9.53 a 13.51,13.51 0 0 1 -0.27,-2.89 z M 65.950998,140.935 a 72.12,72.12 0 0 0 -5,-14.39 52.38,52.38 0 0 1 -4.37,-14.74 c -0.85,-7.06 0.55,-13.310005 5.07,-16.630008 -1.72,-5.49 -3.1,-10.9 -4.79,-16.28 -9.8,5.17 -16.63,14.61 -16.63,28.600008 0,8.64 3.24,14.22 6.33,20.41 a 78,78 0 0 1 5.31,12.74 c 1.42,4.69 2.69,9.88 2.26,14.84 -0.83,9.44 -4.71,16 -9.76,21.58 -0.51,0.57 -2.15,2 -2.17,2.43 a 9.41,9.41 0 0 0 1,1.89 c 2,4.17 3.75,7.78 5.78,11.87 0.29,0.57 0.59,1.79 1,2 0.41,0.21 1.2,-0.84 1.72,-1.35 a 50.6,50.6 0 0 0 4.78,-5.67 c 8.36,-11.64 13.34,-29.49 9.47,-47.3 z m 33.060003,19.88 c 4.069989,-11.59 7.999989,-23.59 10.999989,-35.79 0.89,-3.64 2,-7.27 2.71,-11 0.09,-0.45 0.43,-1.35 0,-1.52 -5.26,1.62 -10.75,3 -15.999989,4.67 -2.17,18.09 -7.64,34.2 -13.73,49.28 -6.09,15.08 -13.610003,29.01 -21.410003,42.28 9.61,10.42 21.800003,18.28 35.230003,24.9 2.45,-4 4.999989,-7.89 7.309989,-12 -8.189989,-5 -16.699989,-9.76 -23.669989,-16 a 484.16,484.16 0 0 0 18.57,-44.83 z m 31.159989,-31.92 c -3.42,-2.34 -7.58,-4 -11.29,-6 -7.45,28.39 -17.33,54.6 -26.829989,81.19 3.35,1.81 6.52,3.82 9.939989,5.58 6.37,-12.38 10.31,-25.74 15.36,-39.2 2.47,-6.6 4.57,-13.45 6.68,-20.32 2.11,-6.87 4.3,-14.05 6.15,-21.26 z m 28.82,83.08 c 0,-3.35 0,-9.08 0,-11.77 0,-2.69 -0.09,-5.7 -0.18,-10.43 -7.12,0.87 -14.31,1.53 -21.32,2.52 -0.26,3.87 -0.29,8 -0.54,12.14 3.05,0.18 8,-0.44 11.11,-0.45 0,5.76 0,10.77 0.09,15.73 0,1.85 0.27,3.8 -0.18,5.4 -0.68,2.4 -3.19,3.91 -6.41,3.6 -3.71,-0.36 -6.64,-4.17 -8.22,-7.29 -5.49,-10.82 -3.68,-28.58 -1.54,-40.55 a 64.24,64.24 0 0 1 8.68,-22.93 c 4.15,-6.49 9.68,-11.92 17.71,-14.21 0,-3.27 -0.21,-7.84 -0.37,-11.51 -0.06,-1.7 0,-3.81 -0.45,-4.67 -0.06,-0.11 -0.26,0.06 -0.36,0.09 a 45,45 0 0 0 -13.37,7.55 58.07,58.07 0 0 0 -14.54,16.82 69.73,69.73 0 0 0 -3.44,7 c -4.28,9.59 -6.32,20.72 -7.5,33 -0.89,9.37 -1,18 0.45,26.53 a 45.69,45.69 0 0 0 2.27,8 c 3.47,9.2 10.28,16.92 24.11,15 5.32,-0.73 9.55,-2.77 14.09,-4.68 0.13,-8.86 -0.12,-18.09 -0.07,-24.89 z m 42.28,-53.14 c -0.69,-6.55 -1.06,-13.42 -1.27,-20.15 -0.28,-9.29 0,-18.34 0.46,-27.6 0,-0.05 0,-0.11 -0.09,-0.09 -3.59,2.77 -7.73,5.71 -11.57,8.54 a 5.47,5.47 0 0 0 -1.53,1.35 13.07,13.07 0 0 0 0,2.43 c -0.07,13.37 0.7,27.65 1,39.56 -3.34,1.41 -6.62,3.21 -9.93,4.5 -1.44,-13.85 -2.24,-26.31 -3.08,-40.47 -4.41,1.49 -8.45,3.34 -12.73,4.95 0.9,6.58 1.82,12.89 2.44,19 a 290.74,290.74 0 0 1 1.71,29.14 c 0,2.77 0,5.65 -0.17,8.45 -0.38,5.9 -0.26,11.92 -0.73,17.8 -0.91,11.37 -0.83,23.65 -0.81,34.44 2.31,-1 4.53,-2.3 6.77,-3.42 a 55.3,55.3 0 0 0 6.69,-3.51 c 0,-4.29 0.16,-7.67 0.27,-11.42 0.39,-14.11 0.79,-25.94 0.27,-38.39 3.82,-1.81 7.61,-3.65 11.56,-5.3 2.69,16.08 8.06,30.2 13,44.6 4.15,-3.06 7.64,-6.77 11.47,-10.16 -2.84,-7.33 -5.07,-15.07 -7.32,-22.84 a 175.85,175.85 0 0 1 -6.4,-31.41 z m 30.72,-45 c 2.34,-0.93 4.41,-2.3 6.59,-3.42 2.18,-1.12 4.3,-2.35 6.41,-3.6 -4,-11.490008 -9,-22.000008 -15.89,-31.000008 a 123.5,123.5 0 0 0 -23.52,-23.63 c 0,-0.18 -0.26,0 -0.27,0.09 a 75,75 0 0 0 -6.06,8.63 c -0.43,0.73 -1.83,2.48 -1.71,3.24 a 12.15,12.15 0 0 0 2.07,2.07 c 0.82,0.75 1.6,1.4 2.18,2 3.63,3.66 6.61,7 9.85,11 0.52,0.64 1.68,1.93 1.72,2.52 a 17.54,17.54 0 0 1 -0.9,3.23 c -1.56,5.7 -2.66,11.27 -3.71,17.270008 a 148.59,148.59 0 0 0 -1.8,35.25 c 0.89,12.5 3.26,23.77 6,34.8 a 141.29,141.29 0 0 0 4.87,16 c 1.48,3.94 3,7.83 4.7,11.33 0.59,1.19 0.88,2.6 1.9,3.51 3.38,-4.4 7,-8.55 10.3,-13 -5,-8.9 -8.36,-19.75 -11,-31.12 a 87.52,87.52 0 0 1 -2.08,-12 c -1.47,-16.33 -2.15,-34 2.34,-49.360008 a 57.5,57.5 0 0 1 8.02,16.230008 z"
     id="path26"
     style="fill:#000000;fill-opacity:1" />
  <metadata
     id="metadata26">
    <rdf:RDF>
      <cc:Work
         rdf:about="">
        <dc:title>SpotlightLogoRow</dc:title>
      </cc:Work>
    </rdf:RDF>
  </metadata>
</svg>
